<svg width="256" height="256" viewBox="0 0 256 256" fill="none" xmlns="http://www.w3.org/2000/svg">
<rect width="256" height="256" fill="#262321"/>
<g filter="url(#filter0_ddii_4465_4117)">
<path d="M109.227 52.3674C109.227 48.8508 106.376 46 102.86 46C99.343 46 96.4922 48.8508 96.4922 52.3674V130.05C96.4922 133.566 99.343 136.417 102.86 136.417C106.376 136.417 109.227 133.566 109.227 130.05V52.3674Z" fill="#FFBB01"/>
<path d="M108.735 155.042C108.735 151.525 105.884 148.674 102.367 148.674C98.8508 148.674 96 151.525 96 155.042V167.776C96 171.293 98.8508 174.144 102.367 174.144C105.884 174.144 108.735 171.293 108.735 167.776V155.042Z" fill="#FFBB01"/>
<path d="M134.68 202.637C134.68 206.154 131.829 209.005 128.313 209.005C124.796 209.005 121.945 206.154 121.945 202.637L121.945 131.322C121.945 127.806 124.796 124.955 128.313 124.955C131.829 124.955 134.68 127.806 134.68 131.322L134.68 202.637Z" fill="#FFBB01"/>
<path d="M134.68 106.49C134.68 110.007 131.829 112.858 128.313 112.858C124.796 112.858 121.945 110.007 121.945 106.49L121.945 97.5759C121.945 94.0593 124.796 91.2085 128.313 91.2085C131.829 91.2085 134.68 94.0593 134.68 97.5759L134.68 106.49Z" fill="#FFBB01"/>
<path d="M160.141 125.592C160.141 129.109 157.29 131.96 153.774 131.96C150.257 131.96 147.406 129.109 147.406 125.592L147.406 118.588C147.406 115.072 150.257 112.221 153.774 112.221C157.29 112.221 160.141 115.072 160.141 118.588L160.141 125.592Z" fill="#FFBB01"/>
<path d="M160.141 61.2818C160.141 57.7652 157.29 54.9144 153.774 54.9144C150.257 54.9144 147.406 57.7652 147.406 61.2818V93.1187C147.406 96.6353 150.257 99.4861 153.774 99.4861C157.29 99.4861 160.141 96.6353 160.141 93.1187V61.2818Z" fill="#FFBB01"/>
<path d="M149.536 98.1837C153.675 102.004 151.765 112.192 148.899 114.739L151.127 125.245C155.372 124.396 162.716 121.106 158.131 114.739C152.401 106.78 154.312 102.004 157.814 97.8653C161.316 93.7264 145.397 94.3632 149.536 98.1837Z" fill="#FFBB01"/>
</g>
<defs>
<filter id="filter0_ddii_4465_4117" x="66" y="16" width="124.141" height="223.005" filterUnits="userSpaceOnUse" color-interpolation-filters="sRGB">
<feFlood flood-opacity="0" result="BackgroundImageFix"/>
<feColorMatrix in="SourceAlpha" type="matrix" values="0 0 0 0 0 0 0 0 0 0 0 0 0 0 0 0 0 0 127 0" result="hardAlpha"/>
<feOffset/>
<feGaussianBlur stdDeviation="15"/>
<feComposite in2="hardAlpha" operator="out"/>
<feColorMatrix type="matrix" values="0 0 0 0 1 0 0 0 0 0.784784 0 0 0 0 0.0217448 0 0 0 1 0"/>
<feBlend mode="normal" in2="BackgroundImageFix" result="effect1_dropShadow_4465_4117"/>
<feColorMatrix in="SourceAlpha" type="matrix" values="0 0 0 0 0 0 0 0 0 0 0 0 0 0 0 0 0 0 127 0" result="hardAlpha"/>
<feOffset/>
<feGaussianBlur stdDeviation="15"/>
<feComposite in2="hardAlpha" operator="out"/>
<feColorMatrix type="matrix" values="0 0 0 0 1 0 0 0 0 0.813945 0 0 0 0 0.154297 0 0 0 1 0"/>
<feBlend mode="normal" in2="effect1_dropShadow_4465_4117" result="effect2_dropShadow_4465_4117"/>
<feBlend mode="normal" in="SourceGraphic" in2="effect2_dropShadow_4465_4117" result="shape"/>
<feColorMatrix in="SourceAlpha" type="matrix" values="0 0 0 0 0 0 0 0 0 0 0 0 0 0 0 0 0 0 127 0" result="hardAlpha"/>
<feOffset/>
<feGaussianBlur stdDeviation="50"/>
<feComposite in2="hardAlpha" operator="arithmetic" k2="-1" k3="1"/>
<feColorMatrix type="matrix" values="0 0 0 0 1 0 0 0 0 0.896783 0 0 0 0 0.614453 0 0 0 1 0"/>
<feBlend mode="normal" in2="shape" result="effect3_innerShadow_4465_4117"/>
<feColorMatrix in="SourceAlpha" type="matrix" values="0 0 0 0 0 0 0 0 0 0 0 0 0 0 0 0 0 0 127 0" result="hardAlpha"/>
<feOffset/>
<feGaussianBlur stdDeviation="25"/>
<feComposite in2="hardAlpha" operator="arithmetic" k2="-1" k3="1"/>
<feColorMatrix type="matrix" values="0 0 0 0 1 0 0 0 0 0.960889 0 0 0 0 0.608887 0 0 0 1 0"/>
<feBlend mode="normal" in2="effect3_innerShadow_4465_4117" result="effect4_innerShadow_4465_4117"/>
</filter>
</defs>
</svg>
