<svg width="387" height="474" viewBox="0 0 387 474" fill="none" xmlns="http://www.w3.org/2000/svg">
<path fill-rule="evenodd" clip-rule="evenodd" d="M60.8189 0H0V182.559C6.54427 199.367 14.938 215.239 25.1808 230.174C27.1154 233.789 30.9985 237.286 34.6757 240.597L34.676 240.597C36.834 242.54 38.921 244.419 40.5018 246.221C42.3323 248.84 43.5511 251.366 44.7331 253.814C46.4646 257.402 48.1172 260.825 51.498 264.142C61.428 272.639 70.648 277.675 80.0018 278.053C81.1077 278.098 82.3698 277.403 83.6181 276.716C84.6172 276.167 85.6075 275.622 86.5018 275.464C86.8394 275.405 87.1758 275.347 87.5111 275.289C92.9513 274.347 98.1148 273.453 104.002 268.721C106.507 266.781 109.963 263.442 113.595 259.932C118.561 255.134 123.857 250.017 127.502 247.721C128.803 247.122 130.079 246.534 131.331 245.956C160.392 232.551 176.859 224.955 209.002 225.721C220.024 228.912 228.04 229.335 234.734 229.688C238.669 229.896 242.147 230.079 245.51 230.787C245.444 232.184 244.935 233.408 243.98 234.459C242.067 236.896 240.404 238.493 238.741 240.09C237.078 241.687 235.415 243.284 233.502 245.721C233.074 246.267 232.521 247.516 231.853 249.027C230.83 251.34 229.536 254.266 228.002 256.221C226.733 257.837 225.777 258.704 224.822 259.57C223.866 260.436 222.91 261.302 221.641 262.918C203.172 259.816 184.607 259.407 165.947 261.694C161.941 262.632 158.065 263.753 154.318 265.06C146.048 267.055 138.5 270.523 131.673 275.464C130.216 276.408 128.745 277.274 127.297 278.127L127.297 278.127C122.418 280.999 117.799 283.719 114.843 288.721C113.146 291.642 113.094 294.216 113.027 297.584C113.019 297.953 113.012 298.332 113.002 298.721C112.99 299.183 112.771 299.863 112.547 300.56C112.289 301.361 112.024 302.184 112.06 302.721C112.336 306.837 113.358 310.972 114.843 314.634C120.07 325.169 127.517 333.84 137.182 340.645C141.672 344.004 148.279 348.706 153.002 351.721C154.428 352.632 155.213 352.7 156.023 352.771C156.798 352.838 157.596 352.908 159.002 353.721C160.192 354.41 161.501 355.456 162.823 356.513L162.823 356.513C164.305 357.697 165.803 358.895 167.171 359.618C169.811 359.897 172.259 359.285 174.515 357.782C180.323 352.41 184.709 345.984 187.674 338.503C189.555 333.57 191.494 328.674 193.488 323.815C195.819 325.802 198.25 327.604 200.782 329.221C201.514 329.69 202.822 330.008 204.101 330.319L204.102 330.319C205.227 330.593 206.33 330.861 207.002 331.221C208.304 331.92 209.459 332.614 210.567 333.281C213.244 334.889 215.647 336.335 219.193 337.279C223.002 338.497 226.879 339.721 230.822 340.951L230.539 341.026L230.271 341.096C226.905 341.979 223.381 342.903 221.002 344.721C220.569 345.052 220.372 345.543 220.173 346.037C220.003 346.462 219.831 346.89 219.507 347.221C216.493 350.309 214.45 354.339 213.379 359.312C213.141 361.291 213.046 363.261 213.094 365.221C213.106 365.749 213.327 366.277 213.548 366.804C213.746 367.277 213.944 367.749 213.991 368.221C214.057 368.891 214.003 369.559 213.948 370.227L213.948 370.227C213.878 371.079 213.809 371.929 213.991 372.777C220.334 378.158 227.168 378.974 234.494 375.225C235.191 375.071 235.837 374.532 236.46 374.013C236.813 373.718 237.159 373.43 237.502 373.221C238.304 372.781 239.101 372.429 239.888 372.082L239.888 372.082C241.187 371.508 242.458 370.947 243.674 370.023C247.316 366.653 250.58 363.082 253.467 359.312C252.645 363.749 251.437 368.052 249.845 372.221C249.747 372.477 249.325 372.99 248.907 373.498C248.502 373.99 248.102 374.477 248.002 374.721C247.532 375.874 247.191 376.89 246.866 377.858C246.279 379.608 245.744 381.204 244.592 383.181C243.875 384.461 243.147 385.734 242.41 387H387V180.051C385.387 181.931 383.705 183.746 381.955 185.496C374.282 189.805 366.121 190.926 357.473 188.863C346.254 185.496 335.849 180.498 326.26 173.868C323.302 171.726 317.08 165.606 315.856 158.261C314.632 150.917 314.326 127.252 314.326 116.337C314.57 106.347 314.57 96.3505 314.326 86.3481C311.745 80.723 307.358 78.5809 301.167 79.9218C295.583 83.4422 291.503 88.2368 288.926 94.3045C276.737 112.206 261.845 127.507 244.249 140.206C228.022 150.791 210.274 154.566 191.002 151.529C183.995 150.842 177.058 149.719 170.193 148.163C169.759 147.61 169.147 147.406 168.357 147.551C150.699 142.858 136.113 133.474 124.597 119.398C123.298 111.498 122.788 103.541 123.067 95.5285C123.665 93.8228 123.869 91.9867 123.679 90.0203C125.161 69.7445 127.099 49.5476 129.494 29.4296C129.515 29.2463 129.538 29.0641 129.56 28.8831L129.56 28.8817L129.56 28.8807L129.56 28.8802C130.11 24.413 130.567 20.6907 120.007 19.9432C110.394 15.8494 100.602 12.2794 90.6299 9.23277C80.7553 5.96938 70.8184 2.89178 60.8189 0ZM0 387V279.42C7.14491 287.419 14.527 295.186 22.1461 302.721C23.1307 303.695 25.9289 305.389 28.7005 307.066L28.7007 307.066C31.3802 308.688 34.0348 310.295 35.0018 311.221C38.6875 314.753 41.0055 317.664 43.237 320.466C45.9576 323.883 48.5495 327.138 53.334 331.159C61.9079 337.689 70.4763 344.217 79.0392 350.744C91.5 359.42 104.149 367.784 116.985 375.837C122.882 378.785 128.594 382.049 134.122 385.629C135.02 386.088 135.919 386.545 136.818 387H0ZM387 81.0323V166.538L386.016 167.942C382.691 172.322 372.733 179.883 359.508 175.084C349.246 171.513 339.65 166.656 330.719 160.514C325.75 157.314 324.658 143.564 324.733 137.088C324.828 134.707 325.189 128.746 325.873 123.947C325.901 120.12 326.186 116.311 326.728 112.52C327.868 108.52 330.547 99.3782 332.144 94.8073C333.031 92.8418 334.076 90.9375 335.28 89.0937C337.37 85.9512 344.571 79.4376 356.658 78.5235C367.314 77.4763 377.428 78.3126 387 81.0323ZM387 70.9406C366.151 66.4036 344.884 65.3171 323.2 67.6813C317.244 66.5491 311.736 64.407 306.675 61.255C304.548 60.0879 302.508 58.7616 300.555 57.2769C296.456 52.9731 292.172 48.8933 287.702 45.0363C270.782 32.9035 252.625 23.0089 233.232 15.353C215.275 8.51975 196.914 3.41974 178.15 0.0523682C177.869 0.0368105 177.589 0.0193544 177.31 0H387V70.9406ZM248.994 35.7213C248.444 35.2405 243.963 31.327 243.33 30.8244C229.131 23.7449 200.339 19.0251 187.717 17.5502C173.522 16.9183 161.788 21.8345 152.516 32.2993C145.181 40.7948 142.163 57.4711 141.571 64.7473C140.442 67.7467 139.653 70.8934 139.205 74.1866H139.203C138.622 76.4379 138.227 78.7978 138.02 81.2662L138.019 81.2769C137.81 83.1733 137.145 89.1395 136.838 91.8855L136.837 102.505C136.837 104.629 137.627 108.11 138.021 109.585C138.783 112.282 139.867 114.839 141.275 117.254C151.452 126.93 177.265 136.625 188.9 140.263C191.503 141.106 194.718 141.401 196 141.443C200.497 141.443 208.523 141.639 211.974 141.738C215.288 141.266 217.299 140.558 217.891 140.263C223.665 138.76 228.989 136.302 233.865 132.888C248.106 120.459 260.432 106.398 270.841 90.7056C271.552 89.2171 272.396 87.7976 273.285 86.3035L273.285 86.3024C274.862 83.6514 276.578 80.7651 277.939 76.8414C281.491 66.2221 279.912 55.9961 277.939 55.3079C273.105 49.5982 267.485 44.8785 261.078 41.1487L248.994 35.7213ZM284.091 268.447C283.682 267.647 283.266 266.832 282.842 265.059C280.971 259.619 278.421 254.519 275.192 249.759C273.774 248.169 272.04 247.66 269.989 248.229C268.453 249.562 267.126 251.092 266.011 252.819C264.407 255.485 262.91 257.3 261.396 259.135C259.978 260.854 258.545 262.59 256.998 265.059C256.495 265.863 255.881 267.444 255.265 269.031C254.641 270.641 254.014 272.255 253.498 273.068C252.472 274.685 251.44 276.3 250.405 277.912C252.073 279.382 254.079 280.42 256.017 281.423C257.434 282.157 258.814 282.871 259.998 283.721C261.379 284.712 262.415 285.952 263.457 287.2C264.253 288.151 265.052 289.108 266.011 289.962C268.165 291.881 270.183 294.045 271.998 296.721C274.961 301.419 276.229 309.735 277.188 316.022C277.345 317.049 277.493 318.023 277.64 318.918C278.533 317.735 279.246 316.511 279.782 315.246C280.044 313.235 280.656 311.399 281.618 309.737C283.29 303.899 284.514 297.983 285.29 291.989V279.136V271.721C284.898 270.025 284.498 269.243 284.091 268.447Z" fill="black"/>
<path d="M386.997 407.839V416.513H359.484V435.632H380.935V444.306H359.484V472.659H348.852V407.839H386.997Z" fill="black"/>
<path d="M300.617 473.312C294.586 473.312 289.021 471.913 283.923 469.115C278.886 466.255 274.876 462.306 271.891 457.27C268.969 452.172 267.508 446.451 267.508 440.109C267.508 433.767 268.969 428.078 271.891 423.042C274.876 418.005 278.886 414.088 283.923 411.29C289.021 408.43 294.586 407 300.617 407C306.71 407 312.275 408.43 317.312 411.29C322.41 414.088 326.42 418.005 329.343 423.042C332.265 428.078 333.726 433.767 333.726 440.109C333.726 446.451 332.265 452.172 329.343 457.27C326.42 462.306 322.41 466.255 317.312 469.115C312.275 471.913 306.71 473.312 300.617 473.312ZM300.617 464.078C304.907 464.078 308.731 463.115 312.089 461.187C315.446 459.198 318.058 456.4 319.923 452.793C321.85 449.125 322.814 444.897 322.814 440.109C322.814 435.322 321.85 431.125 319.923 427.518C318.058 423.912 315.446 421.145 312.089 419.218C308.731 417.29 304.907 416.327 300.617 416.327C296.327 416.327 292.503 417.29 289.145 419.218C285.788 421.145 283.145 423.912 281.218 427.518C279.353 431.125 278.42 435.322 278.42 440.109C278.42 444.897 279.353 449.125 281.218 452.793C283.145 456.4 285.788 459.198 289.145 461.187C292.503 463.115 296.327 464.078 300.617 464.078Z" fill="black"/>
<path d="M202.568 473.312C198.216 473.312 194.299 472.566 190.817 471.073C187.335 469.519 184.599 467.343 182.609 464.545C180.62 461.747 179.625 458.482 179.625 454.752H191.003C191.252 457.55 192.34 459.85 194.268 461.653C196.257 463.457 199.024 464.358 202.568 464.358C206.237 464.358 209.097 463.488 211.149 461.747C213.201 459.944 214.226 457.643 214.226 454.845C214.226 452.669 213.574 450.897 212.268 449.529C211.024 448.161 209.439 447.104 207.511 446.358C205.646 445.612 203.035 444.804 199.677 443.933C195.449 442.814 191.998 441.695 189.325 440.576C186.713 439.394 184.475 437.591 182.609 435.166C180.744 432.741 179.812 429.508 179.812 425.467C179.812 421.736 180.744 418.472 182.609 415.674C184.475 412.876 187.086 410.731 190.444 409.238C193.801 407.746 197.687 407 202.102 407C208.382 407 213.511 408.586 217.491 411.757C221.532 414.865 223.771 419.156 224.206 424.627H212.454C212.268 422.264 211.149 420.244 209.097 418.565C207.045 416.886 204.34 416.047 200.983 416.047C197.936 416.047 195.449 416.824 193.522 418.378C191.594 419.933 190.63 422.171 190.63 425.093C190.63 427.083 191.221 428.731 192.402 430.037C193.646 431.28 195.2 432.275 197.066 433.021C198.931 433.767 201.48 434.575 204.713 435.446C209.004 436.627 212.485 437.809 215.159 438.99C217.895 440.171 220.195 442.006 222.061 444.493C223.988 446.918 224.952 450.182 224.952 454.286C224.952 457.581 224.05 460.69 222.247 463.612C220.506 466.534 217.926 468.897 214.506 470.7C211.149 472.441 207.169 473.312 202.568 473.312Z" fill="black"/>
<path d="M165.781 407.839V416.513H148.526V472.659H137.894V416.513H120.547V407.839H165.781Z" fill="black"/>
<path d="M75.6717 473.312C69.6405 473.312 64.0757 471.913 58.9772 469.115C53.9409 466.255 49.9305 462.306 46.946 457.27C44.0237 452.172 42.5625 446.451 42.5625 440.109C42.5625 433.767 44.0237 428.078 46.946 423.042C49.9305 418.005 53.9409 414.088 58.9772 411.29C64.0757 408.43 69.6405 407 75.6717 407C81.765 407 87.3299 408.43 92.3662 411.29C97.4647 414.088 101.475 418.005 104.397 423.042C107.32 428.078 108.781 433.767 108.781 440.109C108.781 446.451 107.32 452.172 104.397 457.27C101.475 462.306 97.4647 466.255 92.3662 469.115C87.3299 471.913 81.765 473.312 75.6717 473.312ZM75.6717 464.078C79.9619 464.078 83.7858 463.115 87.1433 461.187C90.5009 459.198 93.1123 456.4 94.9776 452.793C96.9051 449.125 97.8689 444.897 97.8689 440.109C97.8689 435.322 96.9051 431.125 94.9776 427.518C93.1123 423.912 90.5009 421.145 87.1433 419.218C83.7858 417.29 79.9619 416.327 75.6717 416.327C71.3815 416.327 67.5576 417.29 64.2001 419.218C60.8425 421.145 58.2 423.912 56.2725 427.518C54.4072 431.125 53.4745 435.322 53.4745 440.109C53.4745 444.897 54.4072 449.125 56.2725 452.793C58.2 456.4 60.8425 459.198 64.2001 461.187C67.5576 463.115 71.3815 464.078 75.6717 464.078Z" fill="black"/>
<path d="M10.6322 464.078H32.5496V472.659H0V407.839H10.6322V464.078Z" fill="black"/>
</svg>
