<svg width="387" height="475" viewBox="0 0 387 475" fill="none" xmlns="http://www.w3.org/2000/svg">
<path fill-rule="evenodd" clip-rule="evenodd" d="M60.811 0.778809H-0.0078125V183.337C6.53646 200.146 14.9301 216.018 25.173 230.953C28.2429 236.689 31.9151 241.994 36.1895 246.866C40.7013 253.322 45.8014 259.34 51.4901 264.921C69.6459 280.456 88.0067 280.763 106.573 265.839C112.502 261.246 118.622 256.961 124.933 252.986C153.424 235.458 184.434 227.094 217.961 227.893C227.235 228.431 236.416 229.655 245.503 231.565C245.437 232.963 244.927 234.187 243.973 235.238L232.942 249.291L221.634 263.697C203.164 260.594 184.599 260.186 165.939 262.473C161.933 263.41 158.057 264.532 154.311 265.839C146.04 267.833 138.492 271.302 131.666 276.243C125.299 280.365 120.199 285.669 116.365 292.156C112.062 299.562 111.552 307.314 114.835 315.413C120.062 325.948 127.509 334.618 137.174 341.424C146.654 348.513 156.65 354.837 167.163 360.397C169.803 360.675 172.252 360.063 174.508 358.561C180.315 353.189 184.701 346.763 187.666 339.282C189.547 334.349 191.486 329.453 193.48 324.593C201.007 331.009 209.575 335.498 219.185 338.058C222.994 339.276 226.871 340.5 230.814 341.73C221.281 344.241 215.467 350.361 213.371 360.091C212.827 364.629 213.03 369.117 213.983 373.556C220.326 378.936 227.16 379.752 234.486 376.004C235.578 375.763 236.598 375.356 237.546 374.78C239.673 373.612 241.714 372.286 243.667 370.801C247.308 367.432 250.572 363.861 253.459 360.091C251.895 368.531 248.937 376.487 244.585 383.96C243.867 385.24 243.14 386.513 242.402 387.779H386.992V180.83C385.379 182.709 383.697 184.524 381.947 186.275C374.274 190.583 366.114 191.705 357.466 189.641C346.246 186.275 335.842 181.277 326.252 174.647C323.294 172.505 317.072 166.384 315.848 159.04C314.624 151.696 314.318 128.031 314.318 117.116C314.562 107.126 314.562 97.1293 314.318 87.127C311.737 81.5018 307.35 79.3597 301.159 80.7007C295.575 84.2211 291.495 89.0157 288.919 95.0833C276.73 112.985 261.837 128.286 244.241 140.985C228.015 151.57 210.266 155.345 190.994 152.308C183.987 151.62 177.05 150.498 170.186 148.942C169.752 148.388 169.14 148.185 168.349 148.33C150.691 143.637 136.105 134.252 124.59 120.176C123.29 112.276 122.78 104.32 123.059 96.3074C123.657 94.6016 123.861 92.7656 123.671 90.7991C125.153 70.5233 127.091 50.3264 129.486 30.2085L119.999 20.7221C110.386 16.6282 100.594 13.0583 90.622 10.0116C80.7475 6.74819 70.8105 3.67059 60.811 0.778809ZM-0.0078125 387.779V280.198C16.5039 298.685 34.2821 315.932 53.3262 331.938C61.9001 338.467 70.4685 344.996 79.0313 351.523C91.4922 360.199 104.141 368.563 116.977 376.616C122.874 379.564 128.586 382.828 134.114 386.408C135.012 386.866 135.911 387.323 136.811 387.779H-0.0078125ZM386.992 81.8111V167.317L386.009 168.72C382.683 173.101 372.725 180.662 359.5 175.863C349.239 172.292 339.643 167.435 330.711 161.293C325.743 158.093 324.65 144.342 324.725 137.867C324.82 135.486 325.181 129.525 325.866 124.726C325.893 120.899 326.178 117.09 326.721 113.298C327.861 109.299 330.539 100.157 332.136 95.5861C333.023 93.6206 334.068 91.7163 335.272 89.8725C337.362 86.73 344.563 80.2165 356.65 79.3023C367.306 78.2552 377.421 79.0914 386.992 81.8111ZM386.992 71.7194C366.143 67.1824 344.876 66.0959 323.192 68.4601C317.237 67.3279 311.728 65.1858 306.667 62.0339C304.541 60.8667 302.5 59.5405 300.547 58.0557C296.448 53.7519 292.164 49.6721 287.695 45.8151C270.774 33.6823 252.617 23.7877 233.224 16.1319C215.267 9.29858 196.907 4.19855 178.142 0.831184C177.861 0.815625 177.581 0.798166 177.302 0.778809H386.992V71.7194ZM245.097 33.078C244.547 32.5972 243.955 32.1058 243.322 31.6032C229.123 24.5237 200.331 19.8039 187.71 18.329C173.514 17.6971 161.78 22.6133 152.508 33.0781C145.173 41.5736 142.155 58.2499 141.563 65.5261C140.434 68.5255 139.645 71.6722 139.197 74.9654H139.195C138.614 77.2167 138.22 79.5766 138.012 82.045L138.011 82.0557C137.803 83.9521 137.137 89.9183 136.83 92.6643V103.283L136.83 103.284C136.829 105.408 137.619 108.888 138.014 110.363C138.775 113.061 139.859 115.618 141.268 118.033C151.444 127.708 177.257 137.403 188.892 141.041C191.495 141.885 194.71 142.18 195.992 142.221C200.489 142.221 208.515 142.418 211.966 142.516C215.28 142.045 217.292 141.336 217.883 141.041C223.657 139.539 228.982 137.081 233.857 133.667C248.099 121.238 260.424 107.177 270.833 91.4844C271.544 89.9956 272.389 88.5758 273.278 87.0812C274.854 84.4302 276.571 81.5439 277.932 77.6203C281.483 67.0009 279.905 56.7749 277.932 56.0867C273.098 50.377 267.477 45.6573 261.07 41.9275L245.097 33.078ZM285.282 276.243C284.495 272.842 283.679 269.373 282.834 265.838C280.963 260.397 278.413 255.297 275.184 250.538C273.766 248.948 272.032 248.438 269.982 249.008C268.445 250.341 267.119 251.871 266.003 253.598C260.922 262.043 255.72 270.408 250.397 278.691C258.227 285.59 265.062 293.342 270.9 301.948C274.347 307.413 276.591 313.329 277.632 319.697C278.525 318.514 279.239 317.29 279.774 316.024C280.036 314.014 280.648 312.178 281.61 310.516C283.282 304.678 284.506 298.762 285.282 292.767V279.915V276.243Z" fill="black"/>
<path d="M386.997 408.839V417.513H359.484V436.632H380.935V445.306H359.484V473.659H348.852V408.839H386.997Z" fill="black"/>
<path d="M300.617 474.312C294.586 474.312 289.021 472.913 283.923 470.115C278.886 467.255 274.876 463.306 271.891 458.27C268.969 453.172 267.508 447.451 267.508 441.109C267.508 434.767 268.969 429.078 271.891 424.042C274.876 419.005 278.886 415.088 283.923 412.29C289.021 409.43 294.586 408 300.617 408C306.71 408 312.275 409.43 317.312 412.29C322.41 415.088 326.42 419.005 329.343 424.042C332.265 429.078 333.726 434.767 333.726 441.109C333.726 447.451 332.265 453.172 329.343 458.27C326.42 463.306 322.41 467.255 317.312 470.115C312.275 472.913 306.71 474.312 300.617 474.312ZM300.617 465.078C304.907 465.078 308.731 464.115 312.089 462.187C315.446 460.198 318.058 457.4 319.923 453.793C321.85 450.125 322.814 445.897 322.814 441.109C322.814 436.322 321.85 432.125 319.923 428.518C318.058 424.912 315.446 422.145 312.089 420.218C308.731 418.29 304.907 417.327 300.617 417.327C296.327 417.327 292.503 418.29 289.145 420.218C285.788 422.145 283.145 424.912 281.218 428.518C279.353 432.125 278.42 436.322 278.42 441.109C278.42 445.897 279.353 450.125 281.218 453.793C283.145 457.4 285.788 460.198 289.145 462.187C292.503 464.115 296.327 465.078 300.617 465.078Z" fill="black"/>
<path d="M202.568 474.312C198.216 474.312 194.299 473.566 190.817 472.073C187.335 470.519 184.599 468.343 182.609 465.545C180.62 462.747 179.625 459.482 179.625 455.752H191.003C191.252 458.55 192.34 460.85 194.268 462.653C196.257 464.457 199.024 465.358 202.568 465.358C206.237 465.358 209.097 464.488 211.149 462.747C213.201 460.944 214.226 458.643 214.226 455.845C214.226 453.669 213.574 451.897 212.268 450.529C211.024 449.161 209.439 448.104 207.511 447.358C205.646 446.612 203.035 445.804 199.677 444.933C195.449 443.814 191.998 442.695 189.325 441.576C186.713 440.394 184.475 438.591 182.609 436.166C180.744 433.741 179.812 430.508 179.812 426.467C179.812 422.736 180.744 419.472 182.609 416.674C184.475 413.876 187.086 411.731 190.444 410.238C193.801 408.746 197.687 408 202.102 408C208.382 408 213.511 409.586 217.491 412.757C221.532 415.865 223.771 420.156 224.206 425.627H212.454C212.268 423.264 211.149 421.244 209.097 419.565C207.045 417.886 204.34 417.047 200.983 417.047C197.936 417.047 195.449 417.824 193.522 419.378C191.594 420.933 190.63 423.171 190.63 426.093C190.63 428.083 191.221 429.731 192.402 431.037C193.646 432.28 195.2 433.275 197.066 434.021C198.931 434.767 201.48 435.575 204.713 436.446C209.004 437.627 212.485 438.809 215.159 439.99C217.895 441.171 220.195 443.006 222.061 445.493C223.988 447.918 224.952 451.182 224.952 455.286C224.952 458.581 224.05 461.69 222.247 464.612C220.506 467.534 217.926 469.897 214.506 471.7C211.149 473.441 207.169 474.312 202.568 474.312Z" fill="black"/>
<path d="M165.781 408.839V417.513H148.526V473.659H137.894V417.513H120.547V408.839H165.781Z" fill="black"/>
<path d="M75.6717 474.312C69.6405 474.312 64.0757 472.913 58.9772 470.115C53.9409 467.255 49.9305 463.306 46.946 458.27C44.0237 453.172 42.5625 447.451 42.5625 441.109C42.5625 434.767 44.0237 429.078 46.946 424.042C49.9305 419.005 53.9409 415.088 58.9772 412.29C64.0757 409.43 69.6405 408 75.6717 408C81.765 408 87.3299 409.43 92.3662 412.29C97.4647 415.088 101.475 419.005 104.397 424.042C107.32 429.078 108.781 434.767 108.781 441.109C108.781 447.451 107.32 453.172 104.397 458.27C101.475 463.306 97.4647 467.255 92.3662 470.115C87.3299 472.913 81.765 474.312 75.6717 474.312ZM75.6717 465.078C79.9619 465.078 83.7858 464.115 87.1433 462.187C90.5009 460.198 93.1123 457.4 94.9776 453.793C96.9051 450.125 97.8689 445.897 97.8689 441.109C97.8689 436.322 96.9051 432.125 94.9776 428.518C93.1123 424.912 90.5009 422.145 87.1433 420.218C83.7858 418.29 79.9619 417.327 75.6717 417.327C71.3815 417.327 67.5576 418.29 64.2001 420.218C60.8425 422.145 58.2 424.912 56.2725 428.518C54.4072 432.125 53.4745 436.322 53.4745 441.109C53.4745 445.897 54.4072 450.125 56.2725 453.793C58.2 457.4 60.8425 460.198 64.2001 462.187C67.5576 464.115 71.3815 465.078 75.6717 465.078Z" fill="black"/>
<path d="M10.6322 465.078H32.5496V473.659H0V408.839H10.6322V465.078Z" fill="black"/>
</svg>
