<svg width="387" height="387" viewBox="0 0 387 387" fill="none" xmlns="http://www.w3.org/2000/svg">
<rect width="387" height="387" fill="black"/>
<path d="M306.306 139.11C300.258 139.11 294.789 138.075 289.901 136.003C285.095 133.932 281.284 130.949 278.467 127.055C275.65 123.161 274.2 118.562 274.117 113.26H292.759C293.008 116.822 294.251 119.639 296.488 121.711C298.808 123.782 301.956 124.818 305.933 124.818C309.993 124.818 313.183 123.865 315.503 121.959C317.823 119.971 318.983 117.402 318.983 114.254C318.983 111.685 318.196 109.573 316.621 107.916C315.047 106.258 313.059 104.974 310.656 104.063C308.336 103.069 305.105 101.991 300.962 100.832C295.328 99.1745 290.729 97.5588 287.167 95.9846C283.687 94.3275 280.663 91.8833 278.094 88.652C275.609 85.3378 274.366 80.9465 274.366 75.4781C274.366 70.3412 275.65 65.867 278.218 62.0558C280.787 58.2445 284.391 55.3446 289.031 53.3561C293.671 51.2847 298.973 50.249 304.939 50.249C313.887 50.249 321.137 52.4447 326.688 56.8359C332.322 61.1444 335.429 67.1927 336.009 74.981H316.87C316.704 71.9983 315.42 69.5541 313.017 67.6484C310.697 65.6599 307.59 64.6657 303.696 64.6657C300.299 64.6657 297.565 65.5356 295.494 67.2756C293.505 69.0155 292.511 71.5426 292.511 74.8567C292.511 77.1767 293.257 79.1237 294.748 80.698C296.322 82.1893 298.228 83.4321 300.465 84.4264C302.785 85.3378 306.016 86.4149 310.159 87.6577C315.793 89.3148 320.391 90.9719 323.954 92.629C327.517 94.2861 330.582 96.7717 333.151 100.086C335.719 103.4 337.004 107.75 337.004 113.135C337.004 117.775 335.802 122.084 333.399 126.061C330.997 130.038 327.475 133.228 322.835 135.63C318.196 137.95 312.686 139.11 306.306 139.11Z" fill="white"/>
<path d="M263.658 50V64.0438H240.542V136.748H223.142V64.0438H147.07V50H263.658Z" fill="white"/>
<path d="M147.313 139.11C139.193 139.11 131.736 137.205 124.942 133.393C118.148 129.582 112.763 124.321 108.786 117.61C104.809 110.815 102.82 103.151 102.82 94.6175C102.82 86.1663 104.809 78.5852 108.786 71.874C112.763 65.0799 118.148 59.7773 124.942 55.966C131.736 52.1547 139.193 50.249 147.313 50.249C155.516 50.249 162.972 52.1547 169.684 55.966C176.478 59.7773 181.822 65.0799 185.716 71.874C189.693 78.5852 191.682 86.1663 191.682 94.6175C191.682 103.151 189.693 110.815 185.716 117.61C181.822 124.321 176.478 129.582 169.684 133.393C162.89 137.205 155.433 139.11 147.313 139.11ZM147.313 123.575C152.533 123.575 157.131 122.415 161.108 120.095C165.085 117.692 168.192 114.295 170.429 109.904C172.666 105.513 173.785 100.417 173.785 94.6175C173.785 88.8177 172.666 83.7636 170.429 79.4551C168.192 75.0639 165.085 71.7083 161.108 69.3884C157.131 67.0684 152.533 65.9085 147.313 65.9085C142.093 65.9085 137.453 67.0684 133.394 69.3884C129.417 71.7083 126.309 75.0639 124.072 79.4551C121.835 83.7636 120.717 88.8177 120.717 94.6175C120.717 100.417 121.835 105.513 124.072 109.904C126.309 114.295 129.417 117.692 133.394 120.095C137.453 122.415 142.093 123.575 147.313 123.575Z" fill="white"/>
<path d="M67.3994 124.444H123.326V138.24H50V51.4912H67.3994V124.444Z" fill="white"/>
<path d="M308.028 124.818V139.084H222.149V161.108H274.72V174.903H222.149V211.566H204.75V124.818H308.028Z" fill="white"/>
<path d="M147.438 212.436C139.318 212.436 131.861 210.531 125.067 206.719C118.273 202.908 112.888 197.647 108.911 190.936C104.934 184.142 102.945 176.478 102.945 167.944C102.945 159.493 104.934 151.911 108.911 145.2C112.888 138.406 118.273 133.103 125.067 129.292C131.861 125.481 139.318 123.575 147.438 123.575C155.641 123.575 163.097 125.481 169.809 129.292C176.603 133.103 181.947 138.406 185.841 145.2C189.818 151.911 191.807 159.493 191.807 167.944C191.807 176.478 189.818 184.142 185.841 190.936C181.947 197.647 176.603 202.908 169.809 206.719C163.015 210.531 155.558 212.436 147.438 212.436ZM147.438 196.901C152.658 196.901 157.256 195.741 161.233 193.421C165.21 191.019 168.317 187.622 170.554 183.23C172.791 178.839 173.91 173.743 173.91 167.944C173.91 162.144 172.791 157.09 170.554 152.781C168.317 148.39 165.21 145.034 161.233 142.715C157.256 140.395 152.658 139.235 147.438 139.235C142.218 139.235 137.578 140.395 133.519 142.715C129.542 145.034 126.434 148.39 124.197 152.781C121.96 157.09 120.842 162.144 120.842 167.944C120.842 173.743 121.96 178.839 124.197 183.23C126.434 187.622 129.542 191.019 133.519 193.421C137.578 195.741 142.218 196.901 147.438 196.901Z" fill="white"/>
<rect x="315" y="315" width="22" height="22" fill="white"/>
</svg>
