<svg width="300" height="300" viewBox="0 0 300 300" fill="none" xmlns="http://www.w3.org/2000/svg">
<rect width="300" height="300" fill="black"/>
<path d="M230.383 103.119V93.5C234.029 95.8763 237.886 97.5527 241.955 98.5293C246.024 99.4733 249.475 99.9453 252.307 99.9453C256.896 99.9453 260.201 99.2129 262.219 97.748C264.237 96.2507 265.246 94.3952 265.246 92.1816C265.246 90.7168 264.774 89.4635 263.83 88.4219C262.886 87.3802 260.542 86.0944 256.799 84.5645L253.674 83.2949L247.375 80.8047C240.604 78.168 236.34 75.7266 234.582 73.4805C232.792 71.2669 231.896 68.5651 231.896 65.375C231.896 60.8828 233.622 57.1882 237.072 54.291C240.555 51.3939 246.187 49.9453 253.967 49.9453C259.794 49.9453 265.311 50.7917 270.52 52.4844V60.7363C264.53 58.5879 258.898 57.5137 253.625 57.5137C249.784 57.5137 246.773 58.1973 244.592 59.5645C242.443 60.8991 241.369 62.5755 241.369 64.5938C241.369 66.5469 242.313 68.1094 244.201 69.2812C246.057 70.4531 249.084 71.804 253.283 73.334L259.436 75.5801C265.067 77.6309 269.022 79.8607 271.301 82.2695C273.579 84.6784 274.719 87.6895 274.719 91.3027C274.719 96.0228 272.896 99.9128 269.25 102.973C265.637 106 259.842 107.514 251.867 107.514C244.901 107.514 237.74 106.049 230.383 103.119Z" fill="white"/>
<path d="M230.291 103.803C226.027 105.593 222.934 106.651 221.014 106.977C219.093 107.335 217.238 107.514 215.447 107.514C211.639 107.514 208.156 106.781 204.998 105.316C201.84 103.852 199.448 101.687 197.82 98.8223C196.225 95.9577 195.428 91.5306 195.428 85.541V63.5684H181.805V56H195.428V34.0273H204.51V56H228.777V63.5684H204.51V85.3945C204.51 89.7891 205.031 92.8978 206.072 94.7207C207.114 96.5111 208.497 97.8294 210.223 98.6758C211.98 99.5221 214.048 99.9453 216.424 99.9453C220.818 99.9453 225.441 98.5618 230.291 95.7949V103.803Z" fill="white"/>
<path d="M162.094 107.514C154.281 107.514 148.031 104.796 143.344 99.3594C138.656 93.8906 136.312 87.0059 136.312 78.7051C136.312 70.4043 138.656 63.5358 143.344 58.0996C148.031 52.6634 154.281 49.9453 162.094 49.9453C169.874 49.9453 176.107 52.6634 180.795 58.0996C185.482 63.5358 187.826 70.4043 187.826 78.7051C187.826 87.0059 185.482 93.8906 180.795 99.3594C176.107 104.796 169.874 107.514 162.094 107.514ZM162.094 99.9453C166.944 99.9453 170.801 98.0573 173.666 94.2812C176.531 90.5052 177.963 85.3132 177.963 78.7051C177.963 72.1296 176.531 66.9538 173.666 63.1777C170.801 59.4017 166.944 57.5137 162.094 57.5137C157.211 57.5137 153.337 59.4017 150.473 63.1777C147.608 66.9538 146.176 72.1296 146.176 78.7051C146.176 85.3132 147.608 90.5052 150.473 94.2812C153.337 98.0573 157.211 99.9453 162.094 99.9453Z" fill="white"/>
<path d="M138.613 97.6504V106H97.6953V30.2188H107.559V97.6504H138.613Z" fill="white"/>
<path d="M234.328 183V140.568H222.219V133H234.328V130.461C234.328 123.267 235.142 117.945 236.77 114.494C238.397 111.044 240.904 108.212 244.289 105.998C247.707 103.785 252.215 102.678 257.814 102.678C262.046 102.678 266.343 103.117 270.705 103.996V112.639C265.985 111.076 261.802 110.295 258.156 110.295C255.259 110.295 252.704 110.832 250.49 111.906C248.277 112.98 246.535 114.738 245.266 117.18C244.029 119.589 243.41 123.69 243.41 129.484V133H265.041V140.568H243.41V183H234.328Z" fill="white"/>
<path d="M199.031 184.514C191.219 184.514 184.969 181.796 180.281 176.359C175.594 170.891 173.25 164.006 173.25 155.705C173.25 147.404 175.594 140.536 180.281 135.1C184.969 129.663 191.219 126.945 199.031 126.945C206.811 126.945 213.045 129.663 217.732 135.1C222.42 140.536 224.764 147.404 224.764 155.705C224.764 164.006 222.42 170.891 217.732 176.359C213.045 181.796 206.811 184.514 199.031 184.514ZM199.031 176.945C203.882 176.945 207.739 175.057 210.604 171.281C213.468 167.505 214.9 162.313 214.9 155.705C214.9 149.13 213.468 143.954 210.604 140.178C207.739 136.402 203.882 134.514 199.031 134.514C194.148 134.514 190.275 136.402 187.41 140.178C184.546 143.954 183.113 149.13 183.113 155.705C183.113 162.313 184.546 167.505 187.41 171.281C190.275 175.057 194.148 176.945 199.031 176.945Z" fill="white"/>
</svg>
