<svg xmlns="http://www.w3.org/2000/svg" width="256" height="256" fill="none"><path fill="#262321" d="M0 0h256v256H0z"/><g fill="#FFBB01" filter="url(#a)"><path d="M109.227 52.367a6.367 6.367 0 0 0-12.735 0v77.683a6.368 6.368 0 0 0 12.735 0zm-.492 102.675a6.368 6.368 0 1 0-12.735 0v12.734a6.368 6.368 0 1 0 12.735 0zm25.945 47.595a6.368 6.368 0 1 1-12.735 0v-71.315a6.368 6.368 0 0 1 12.735 0zm0-96.147a6.368 6.368 0 1 1-12.735 0v-8.914a6.368 6.368 0 0 1 12.735 0zm25.461 19.102a6.368 6.368 0 1 1-12.735 0v-7.004a6.368 6.368 0 0 1 12.735 0zm0-64.31a6.367 6.367 0 0 0-12.735 0v31.837a6.368 6.368 0 0 0 12.735 0z"/><path d="M149.536 98.184c4.139 3.82 2.229 14.008-.637 16.555l2.228 10.506c4.245-.849 11.589-4.139 7.004-10.506-5.73-7.959-3.819-12.735-.317-16.874s-12.417-3.502-8.278.319"/></g><defs><filter id="a" width="124.141" height="223.005" x="66" y="16" color-interpolation-filters="sRGB" filterUnits="userSpaceOnUse"><feFlood flood-opacity="0" result="BackgroundImageFix"/><feColorMatrix in="SourceAlpha" result="hardAlpha" values="0 0 0 0 0 0 0 0 0 0 0 0 0 0 0 0 0 0 127 0"/><feOffset/><feGaussianBlur stdDeviation="15"/><feComposite in2="hardAlpha" operator="out"/><feColorMatrix values="0 0 0 0 1 0 0 0 0 0.784784 0 0 0 0 0.0217448 0 0 0 1 0"/><feBlend in2="BackgroundImageFix" result="effect1_dropShadow_4465_4117"/><feColorMatrix in="SourceAlpha" result="hardAlpha" values="0 0 0 0 0 0 0 0 0 0 0 0 0 0 0 0 0 0 127 0"/><feOffset/><feGaussianBlur stdDeviation="15"/><feComposite in2="hardAlpha" operator="out"/><feColorMatrix values="0 0 0 0 1 0 0 0 0 0.813945 0 0 0 0 0.154297 0 0 0 1 0"/><feBlend in2="effect1_dropShadow_4465_4117" result="effect2_dropShadow_4465_4117"/><feBlend in="SourceGraphic" in2="effect2_dropShadow_4465_4117" result="shape"/><feColorMatrix in="SourceAlpha" result="hardAlpha" values="0 0 0 0 0 0 0 0 0 0 0 0 0 0 0 0 0 0 127 0"/><feOffset/><feGaussianBlur stdDeviation="50"/><feComposite in2="hardAlpha" k2="-1" k3="1" operator="arithmetic"/><feColorMatrix values="0 0 0 0 1 0 0 0 0 0.896783 0 0 0 0 0.614453 0 0 0 1 0"/><feBlend in2="shape" result="effect3_innerShadow_4465_4117"/><feColorMatrix in="SourceAlpha" result="hardAlpha" values="0 0 0 0 0 0 0 0 0 0 0 0 0 0 0 0 0 0 127 0"/><feOffset/><feGaussianBlur stdDeviation="25"/><feComposite in2="hardAlpha" k2="-1" k3="1" operator="arithmetic"/><feColorMatrix values="0 0 0 0 1 0 0 0 0 0.960889 0 0 0 0 0.608887 0 0 0 1 0"/><feBlend in2="effect3_innerShadow_4465_4117" result="effect4_innerShadow_4465_4117"/></filter></defs></svg>