<svg width="392" height="350" viewBox="0 0 392 350" fill="none" xmlns="http://www.w3.org/2000/svg">
<path fill-rule="evenodd" clip-rule="evenodd" d="M141.691 23.9355L135.392 130.33C135.195 133.662 138.255 136.248 141.507 135.498L179.417 126.749C182.964 125.931 186.169 129.055 185.44 132.622L174.177 187.775C173.419 191.487 176.904 194.661 180.529 193.56L203.944 186.446C207.574 185.344 211.062 188.527 210.294 192.242L192.395 278.875C191.275 284.294 198.483 287.249 201.489 282.603L203.497 279.5L314.451 58.072C316.309 54.3645 313.105 50.137 309.033 50.9228L270.011 58.454C266.344 59.161 263.224 55.746 264.259 52.1583L273.465 20.245L380.117 0.805802C388.437 -0.710597 394.766 8.1434 390.639 15.5246L206.641 344.545C202.842 351.338 193.082 351.378 189.226 344.618L1.58011 15.5563C-2.62072 8.1896 3.67861 -0.7335 12.0265 0.758599L141.691 23.9355Z" fill="black"/>
</svg>
